<svg width="744" height="1133" viewBox="0 0 744 1133" fill="none" xmlns="http://www.w3.org/2000/svg">
<rect x="744" width="1133" height="744" transform="rotate(90 744 0)" fill="#E6F5ED"/>
<path fill-rule="evenodd" clip-rule="evenodd" d="M1140.45 357.078L1133.96 334.695C1127.47 312.313 1114.49 267.548 1085.37 250.737C1056.25 233.925 1010.99 245.067 971.789 245.727C932.584 246.387 899.431 236.563 872.331 216.258C845.23 195.952 824.181 165.164 803.133 134.376C782.084 103.588 761.035 72.8002 725.865 66.4714C690.695 60.1425 641.403 78.2729 598.163 85.9208C554.924 93.5686 517.736 90.734 494.67 63.4401C471.604 36.1462 462.66 -15.6069 458.187 -41.4835L453.715 -67.36L514.236 -172.185L528.795 -163.78C543.354 -155.374 572.472 -138.563 601.59 -121.751C630.708 -104.94 659.827 -88.1285 688.945 -71.3171C718.063 -54.5057 747.181 -37.6944 776.299 -20.883C805.417 -4.07167 834.535 12.7397 863.653 29.551C892.772 46.3624 921.89 63.1738 951.008 79.9851C980.126 96.7965 1009.24 113.608 1038.36 130.419C1067.48 147.231 1096.6 164.042 1125.72 180.853C1154.83 197.665 1183.95 214.476 1198.51 222.882L1213.07 231.287L1140.45 357.078Z" fill="#009647"/>
<path fill-rule="evenodd" clip-rule="evenodd" d="M924.28 222.143L919.141 198.125C914.001 174.106 903.722 126.069 875.212 109.609C846.701 93.1484 799.96 108.265 760.056 111.54C720.152 114.815 687.084 106.249 660.853 85.8412C634.621 65.4338 615.227 33.1851 595.832 0.936472C576.437 -31.3122 557.042 -63.5608 521.696 -68.1799C486.349 -72.799 435.05 -49.7886 390.588 -38.6194C346.126 -27.4502 308.501 -28.1222 286.827 -56.4238C265.153 -84.7253 259.432 -140.656 256.571 -168.622L253.71 -196.588L322.076 -315L336.331 -306.77C350.586 -298.54 379.096 -282.079 407.606 -265.619C436.116 -249.159 464.626 -232.698 493.136 -216.238C521.647 -199.778 550.157 -183.317 578.667 -166.857C607.177 -150.397 635.687 -133.936 664.197 -117.476C692.707 -101.016 721.217 -84.5552 749.728 -68.0949C778.238 -51.6346 806.748 -35.1742 835.258 -18.7139C863.768 -2.25354 892.278 14.2068 920.788 30.6671C949.299 47.1275 977.809 63.5878 992.064 71.818L1006.32 80.0482L924.28 222.143Z" fill="#F8BF02"/>
<path fill-rule="evenodd" clip-rule="evenodd" d="M914.314 309.881L908.889 291.171C903.464 272.462 892.615 235.043 868.275 220.99C843.935 206.937 806.104 216.251 773.333 216.802C740.561 217.354 712.848 209.142 690.194 192.169C667.541 175.195 649.946 149.459 632.351 123.723C614.757 97.9875 597.162 72.2516 567.763 66.9613C538.364 61.6709 497.16 76.8263 461.016 83.2192C424.872 89.6121 393.786 87.2425 374.505 64.4274C355.224 41.6123 347.748 -1.64852 344.009 -23.2789L340.271 -44.9093L390.861 -132.533L403.031 -125.507C415.201 -118.481 439.541 -104.428 463.881 -90.3752C488.221 -76.3225 512.561 -62.2698 536.901 -48.2171C561.241 -34.1643 585.581 -20.1116 609.921 -6.05886C634.261 7.99387 658.601 22.0466 682.941 36.0993C707.281 50.1521 731.621 64.2048 755.961 78.2575C780.301 92.3102 804.641 106.363 828.981 120.416C853.321 134.468 877.661 148.521 902.001 162.574C926.342 176.627 950.682 190.679 962.852 197.706L975.022 204.732L914.314 309.881Z" fill="url(#paint0_linear_110_139)"/>
<path fill-rule="evenodd" clip-rule="evenodd" d="M-341.748 793.867L-335.47 815.518C-329.192 837.169 -316.637 880.471 -288.47 896.733C-260.304 912.995 -216.525 902.217 -178.601 901.579C-140.677 900.941 -108.607 910.443 -82.3919 930.086C-56.1766 949.728 -35.8156 979.51 -15.4546 1009.29C4.9064 1039.07 25.2674 1068.86 59.2886 1074.98C93.3097 1081.1 140.991 1063.56 182.818 1056.16C224.645 1048.77 260.618 1051.51 282.93 1077.91C305.243 1104.31 313.895 1154.38 318.221 1179.41L322.547 1204.44L264.004 1305.84L249.92 1297.71C235.837 1289.58 207.67 1273.31 179.503 1257.05C151.336 1240.79 123.169 1224.53 95.0027 1208.27C66.8358 1192 38.669 1175.74 10.5022 1159.48C-17.6646 1143.22 -45.8314 1126.95 -73.9982 1110.69C-102.165 1094.43 -130.332 1078.17 -158.499 1061.91C-186.665 1045.64 -214.832 1029.38 -242.999 1013.12C-271.166 996.858 -299.333 980.596 -327.499 964.334C-355.666 948.071 -383.833 931.809 -397.917 923.678L-412 915.547L-341.748 793.867Z" fill="#009647"/>
<path fill-rule="evenodd" clip-rule="evenodd" d="M-132.644 924.393L-127.673 947.627C-122.701 970.86 -112.757 1017.33 -85.1787 1033.25C-57.6001 1049.17 -12.3862 1034.55 26.2145 1031.38C64.8151 1028.21 96.8026 1036.5 122.177 1056.24C147.551 1075.98 166.312 1107.18 185.073 1138.37C203.834 1169.57 222.596 1200.76 256.787 1205.23C290.979 1209.7 340.602 1187.44 383.611 1176.64C426.621 1165.83 463.017 1166.48 483.983 1193.86C504.948 1221.24 510.483 1275.34 513.25 1302.39L516.018 1329.44L449.886 1443.99L436.096 1436.03C422.307 1428.06 394.728 1412.14 367.15 1396.22C339.571 1380.3 311.992 1364.37 284.414 1348.45C256.835 1332.53 229.256 1316.61 201.678 1300.68C174.099 1284.76 146.52 1268.84 118.942 1252.92C91.3628 1236.99 63.7841 1221.07 36.2055 1205.15C8.62677 1189.23 -18.9519 1173.3 -46.5306 1157.38C-74.1093 1141.46 -101.688 1125.54 -129.267 1109.61C-156.845 1093.69 -184.424 1077.77 -198.213 1069.81L-212.003 1061.85L-132.644 924.393Z" fill="#F8BF02"/>
<path fill-rule="evenodd" clip-rule="evenodd" d="M-123.004 839.521L-117.756 857.62C-112.509 875.718 -102.014 911.915 -78.4688 925.508C-54.924 939.102 -18.3293 930.092 13.3717 929.559C45.0727 929.026 71.88 936.969 93.7936 953.388C115.707 969.807 132.727 994.702 149.747 1019.6C166.767 1044.49 183.787 1069.39 212.225 1074.5C240.664 1079.62 280.521 1064.96 315.484 1058.78C350.448 1052.59 380.518 1054.89 399.169 1076.96C417.82 1099.03 425.052 1140.87 428.669 1161.8L432.285 1182.72L383.348 1267.48L371.575 1260.68C359.803 1253.89 336.258 1240.29 312.713 1226.7C289.169 1213.11 265.624 1199.51 242.079 1185.92C218.534 1172.33 194.989 1158.73 171.444 1145.14C147.9 1131.55 124.355 1117.95 100.81 1104.36C77.2651 1090.76 53.7203 1077.17 30.1755 1063.58C6.63067 1049.98 -16.9142 1036.39 -40.459 1022.8C-64.0038 1009.2 -87.5486 995.609 -111.093 982.016C-134.638 968.422 -158.183 954.829 -169.956 948.032L-181.728 941.235L-123.004 839.521Z" fill="url(#paint1_linear_110_139)"/>
<defs>
<linearGradient id="paint0_linear_110_139" x1="531.067" y1="254.661" x2="678.127" y2="-11.7123" gradientUnits="userSpaceOnUse">
<stop stop-color="#009647" stop-opacity="0.92"/>
<stop offset="1" stop-color="#D9D9D9" stop-opacity="0"/>
</linearGradient>
<linearGradient id="paint1_linear_110_139" x1="247.723" y1="892.938" x2="105.467" y2="1150.61" gradientUnits="userSpaceOnUse">
<stop stop-color="#009647" stop-opacity="0.92"/>
<stop offset="1" stop-color="#D9D9D9" stop-opacity="0"/>
</linearGradient>
</defs>
</svg>
