<svg width="614" height="422" viewBox="0 0 614 422" fill="none" xmlns="http://www.w3.org/2000/svg">
<g filter="url(#filter0_dd_94_170)">
<rect x="39.8989" y="11.082" width="468.812" height="365.699" rx="4" fill="white"/>
</g>
<path d="M547.753 403.104L557.849 403.369C560.674 398.884 562.36 393.777 562.762 388.492C556.292 395.346 544.88 393.624 536.524 397.99C533.928 399.372 531.677 401.319 529.937 403.689C528.197 406.058 527.013 408.788 526.473 411.676L522.31 417.501C526.912 418.667 531.712 418.822 536.38 417.955C541.048 417.088 545.473 415.221 549.349 412.481C551.508 410.923 553.462 409.099 555.165 407.052C551.42 405.322 547.753 403.104 547.753 403.104Z" fill="#8ACFAA"/>
<path d="M542.191 387.743L551.346 383.482C551.872 378.208 551.102 372.886 549.102 367.977C546.371 376.995 535.389 380.539 529.858 388.17C528.152 390.563 527.006 393.31 526.506 396.206C526.006 399.102 526.165 402.073 526.97 404.899L525.844 411.967C530.484 410.96 534.849 408.959 538.641 406.103C542.432 403.248 545.558 399.605 547.805 395.425C549.042 393.068 549.977 390.565 550.588 387.974C546.463 388.094 542.191 387.743 542.191 387.743Z" fill="#8ACFAA"/>
<path d="M527.165 412.264H520.972L518.026 388.397H527.166L527.165 412.264Z" fill="#A0616A"/>
<path d="M527 410.242L520.392 407.56L520.197 407.48L516.549 410.242C514.546 410.242 512.621 411.014 511.175 412.398C509.729 413.782 508.873 415.67 508.786 417.669C508.776 417.778 508.776 417.893 508.776 418.008V418.263H528.744V410.242L527 410.242Z" fill="#2F2E41"/>
<path d="M515.372 399.921L510.034 403.059L495.381 383.982L503.258 379.351L515.372 399.921Z" fill="#A0616A"/>
<path d="M519.057 403.065L518.333 401.832L515.709 397.377L514.344 398.181L514.204 398.261L507.147 399.3L506.937 399.33L505.197 403.56C504.317 404.077 503.548 404.762 502.933 405.576C502.318 406.39 501.87 407.317 501.614 408.305C501.357 409.292 501.298 410.32 501.44 411.331C501.581 412.341 501.921 413.313 502.438 414.192L502.568 414.407L519.777 404.289L519.057 403.065Z" fill="#2F2E41"/>
<path d="M535.008 266.355C537.911 275.105 537.604 284.603 534.31 294.796L533.45 329.837L530.688 351.941C532.354 356.272 533.208 360.872 533.209 365.511C533.197 377.673 532.379 394.951 528.229 403.067H518.41L516.193 366.923L513.548 348.75L513.222 329.276L512.938 312.292L502.261 327.892L491.887 343.05L502.199 360.431L511.195 388.398L501.699 396.388L490.926 375.981L485.705 369.919L471.452 339.09L472.733 334.798C475.37 325.958 479.201 317.519 484.12 309.712L498.297 276.836L535.008 266.355Z" fill="#2F2E41"/>
<path d="M371.461 272.894H176.607C175.052 272.892 173.562 272.274 172.462 271.175C171.363 270.077 170.744 268.587 170.743 267.034V118.208C170.744 116.655 171.363 115.165 172.462 114.067C173.562 112.968 175.052 112.35 176.607 112.349H371.461C373.016 112.35 374.507 112.968 375.606 114.067C376.705 115.165 377.324 116.655 377.326 118.208V267.034C377.324 268.587 376.705 270.077 375.606 271.175C374.507 272.274 373.016 272.892 371.461 272.894Z" fill="white"/>
<path d="M371.461 273.62H176.607C174.86 273.618 173.184 272.923 171.949 271.689C170.713 270.454 170.018 268.78 170.016 267.034V118.208C170.018 116.462 170.713 114.788 171.949 113.553C173.184 112.319 174.86 111.624 176.607 111.622H371.461C373.208 111.624 374.884 112.319 376.12 113.553C377.355 114.788 378.051 116.462 378.053 118.208V267.034C378.051 268.78 377.355 270.454 376.12 271.689C374.884 272.923 373.209 273.618 371.461 273.62ZM176.607 113.075C175.245 113.076 173.939 113.618 172.976 114.58C172.013 115.542 171.471 116.847 171.47 118.208V267.034C171.471 268.395 172.013 269.7 172.976 270.662C173.939 271.624 175.245 272.166 176.607 272.167H371.461C372.823 272.166 374.129 271.624 375.092 270.662C376.055 269.7 376.597 268.395 376.598 267.034V118.208C376.597 116.847 376.055 115.542 375.092 114.58C374.129 113.618 372.823 113.076 371.461 113.075H176.607Z" fill="#F0F0F0"/>
<path d="M171.193 244.562V267.034C171.195 268.468 171.766 269.843 172.781 270.857C173.796 271.871 175.172 272.442 176.607 272.444H371.461C372.897 272.442 374.273 271.871 375.288 270.857C376.303 269.843 376.874 268.468 376.876 267.034V244.562H171.193Z" fill="#F0F0F0"/>
<path d="M173.029 113.297L172.245 114.52L376.483 245.174L377.267 243.95L173.029 113.297Z" fill="#F0F0F0"/>
<path d="M507.373 50.9337H47.6494C47.4564 50.9295 47.2728 50.8499 47.1378 50.712C47.0028 50.5742 46.9272 50.389 46.9272 50.1961C46.9272 50.0032 47.0028 49.818 47.1378 49.6802C47.2728 49.5423 47.4564 49.4627 47.6494 49.4585H507.373C507.566 49.4627 507.75 49.5423 507.885 49.6802C508.02 49.818 508.095 50.0032 508.095 50.1961C508.095 50.389 508.02 50.5742 507.885 50.712C507.75 50.8499 507.566 50.9295 507.373 50.9337Z" fill="#CACACA"/>
<path d="M63.9021 40.607C68.289 40.607 71.8453 36.9744 71.8453 32.4934C71.8453 28.0124 68.289 24.3799 63.9021 24.3799C59.5153 24.3799 55.959 28.0124 55.959 32.4934C55.959 36.9744 59.5153 40.607 63.9021 40.607Z" fill="#3F3D56"/>
<path d="M91.3421 40.607C95.729 40.607 99.2852 36.9744 99.2852 32.4934C99.2852 28.0124 95.729 24.3799 91.3421 24.3799C86.9552 24.3799 83.3989 28.0124 83.3989 32.4934C83.3989 36.9744 86.9552 40.607 91.3421 40.607Z" fill="#3F3D56"/>
<path d="M118.782 40.607C123.169 40.607 126.725 36.9744 126.725 32.4934C126.725 28.0124 123.169 24.3799 118.782 24.3799C114.395 24.3799 110.839 28.0124 110.839 32.4934C110.839 36.9744 114.395 40.607 118.782 40.607Z" fill="#3F3D56"/>
<path d="M490.93 26.3911H471.438C471.051 26.3988 470.683 26.5575 470.413 26.8332C470.142 27.109 469.991 27.4797 469.991 27.8658C469.991 28.2519 470.142 28.6226 470.413 28.8984C470.683 29.1741 471.051 29.3328 471.438 29.3405H490.93C491.316 29.3328 491.684 29.1741 491.954 28.8984C492.225 28.6226 492.376 28.2519 492.376 27.8658C492.376 27.4797 492.225 27.109 491.954 26.8332C491.684 26.5575 491.316 26.3988 490.93 26.3911Z" fill="#3F3D56"/>
<path d="M490.93 31.9268H471.438C471.051 31.9344 470.683 32.0932 470.413 32.3689C470.142 32.6446 469.991 33.0153 469.991 33.4014C469.991 33.7876 470.142 34.1583 470.413 34.434C470.683 34.7097 471.051 34.8685 471.438 34.8761H490.93C491.316 34.8685 491.684 34.7097 491.954 34.434C492.225 34.1583 492.376 33.7876 492.376 33.4014C492.376 33.0153 492.225 32.6446 491.954 32.3689C491.684 32.0932 491.316 31.9344 490.93 31.9268Z" fill="#3F3D56"/>
<path d="M490.93 37.4546H471.438C471.051 37.4623 470.683 37.621 470.413 37.8967C470.142 38.1724 469.991 38.5432 469.991 38.9293C469.991 39.3154 470.142 39.6861 470.413 39.9618C470.683 40.2376 471.051 40.3963 471.438 40.404H490.93C491.316 40.3963 491.684 40.2376 491.954 39.9618C492.225 39.6861 492.376 39.3154 492.376 38.9293C492.376 38.5432 492.225 38.1724 491.954 37.8967C491.684 37.621 491.316 37.4623 490.93 37.4546Z" fill="#3F3D56"/>
<path d="M437.506 224.362C437.932 224.921 438.475 225.38 439.098 225.707C439.72 226.034 440.407 226.221 441.11 226.254C441.812 226.287 442.513 226.166 443.164 225.899C443.815 225.632 444.399 225.226 444.875 224.709L460.554 231.522L459.027 222.777L444.372 217.647C443.45 216.905 442.287 216.527 441.104 216.584C439.922 216.641 438.801 217.13 437.954 217.957C437.108 218.785 436.595 219.894 436.512 221.074C436.43 222.255 436.783 223.424 437.506 224.362Z" fill="#A0616A"/>
<path d="M451.771 219.421L481.723 223.3L512.612 204.708C514.264 203.714 516.107 203.081 518.022 202.85C519.937 202.619 521.878 202.796 523.719 203.369C525.561 203.942 527.259 204.898 528.704 206.175C530.149 207.451 531.307 209.018 532.101 210.774C533.535 213.952 533.698 217.557 532.559 220.851C531.419 224.145 529.062 226.88 525.97 228.494L484.464 243.273L484.386 243.301L447.969 227.092L451.771 219.421Z" fill="#3F3D56"/>
<path d="M495.512 271.646L498.002 265.427L496.355 260.08L501.234 206.787L501.955 198.71L502.003 192.689L518.686 192.283L520.495 196.873L524.075 199.012C527.978 201.351 531.196 204.676 533.405 208.652C535.614 212.629 536.736 217.116 536.658 221.663L536.012 256.62L537.676 259.948C538.129 260.851 538.38 261.842 538.413 262.851C538.446 263.861 538.26 264.866 537.868 265.797C537.475 266.728 536.886 267.563 536.14 268.245C535.394 268.927 534.51 269.44 533.547 269.748L496.872 280.885L495.512 271.646Z" fill="#3F3D56"/>
<path d="M508.817 186.574C517.188 186.574 523.974 179.793 523.974 171.429C523.974 163.064 517.188 156.283 508.817 156.283C500.445 156.283 493.659 163.064 493.659 171.429C493.659 179.793 500.445 186.574 508.817 186.574Z" fill="#A0616A"/>
<path d="M524.601 174.73C525.053 172.827 524.845 170.149 524.59 168.233C524.263 165.706 523.408 163.276 522.081 161.101C520.754 158.925 518.984 157.053 516.886 155.605C516.082 154.994 515.126 154.615 514.122 154.507C513.62 154.465 513.117 154.582 512.686 154.843C512.255 155.103 511.918 155.493 511.722 155.957C511.469 155.327 511.09 154.755 510.607 154.276C510.125 153.798 509.549 153.424 508.916 153.176C507.644 152.69 506.277 152.506 504.921 152.639C502.294 152.855 499.775 153.778 497.631 155.31C495.487 156.841 493.797 158.924 492.742 161.338C492.337 162.299 491.206 158.749 490.693 159.657C490.222 160.601 489.4 161.323 488.402 161.669C487.397 161.949 486.989 166.087 486.593 165.122C486.286 165.835 486.165 166.614 486.241 167.386C486.316 168.159 486.586 168.9 487.025 169.54C487.465 170.18 488.059 170.699 488.753 171.048C489.447 171.397 490.218 171.564 490.994 171.535C492.009 171.404 493.015 171.212 494.006 170.959C495.827 170.73 497.669 171.175 499.183 172.209C500.698 173.244 501.782 174.797 502.229 176.575C502.505 175.541 502.947 174.559 503.538 173.666C503.837 173.221 504.239 172.855 504.709 172.597C505.178 172.339 505.703 172.197 506.239 172.182C506.752 172.241 507.246 172.404 507.694 172.661C508.141 172.917 508.53 173.263 508.839 173.676C509.506 174.459 510.008 175.372 510.68 176.151C512.652 178.435 515.32 183.764 518.131 183.375C520.35 183.069 523.984 177.329 524.601 174.73Z" fill="#2F2E41"/>
<path d="M553.339 299.117C553.731 298.533 553.989 297.87 554.097 297.176C554.204 296.481 554.158 295.772 553.962 295.097C553.765 294.422 553.423 293.799 552.959 293.27C552.495 292.742 551.921 292.322 551.277 292.039L552.639 275.01L544.856 279.291L544.755 294.806C544.352 295.918 544.371 297.14 544.809 298.239C545.246 299.339 546.073 300.24 547.131 300.771C548.189 301.302 549.405 301.427 550.55 301.123C551.694 300.818 552.686 300.104 553.339 299.117Z" fill="#A0616A"/>
<path d="M544.033 287.237L537.987 257.67L510.364 234.509C508.887 233.271 507.689 231.733 506.85 229.999C506.01 228.264 505.547 226.372 505.492 224.445C505.437 222.519 505.791 220.603 506.531 218.824C507.27 217.044 508.379 215.442 509.783 214.121C512.326 211.735 515.686 210.411 519.174 210.419C522.663 210.427 526.016 211.768 528.547 214.166L556.005 248.599L556.057 248.664L552.529 288.342L544.033 287.237Z" fill="#3F3D56"/>
<path d="M613.131 422H359.869C359.755 422.001 359.642 421.95 359.537 421.849C359.431 421.749 359.335 421.602 359.255 421.416C359.174 421.23 359.11 421.01 359.066 420.767C359.023 420.524 359 420.263 359 420C359 419.737 359.023 419.476 359.066 419.233C359.11 418.99 359.174 418.769 359.255 418.584C359.335 418.398 359.431 418.251 359.537 418.151C359.642 418.05 359.755 417.999 359.869 418H613.131C613.245 417.999 613.358 418.05 613.463 418.151C613.569 418.251 613.665 418.398 613.745 418.584C613.826 418.769 613.89 418.99 613.934 419.233C613.978 419.476 614 419.737 614 420C614 420.263 613.978 420.524 613.934 420.767C613.89 421.01 613.826 421.23 613.745 421.416C613.665 421.602 613.569 421.749 613.463 421.849C613.358 421.95 613.245 422.001 613.131 422Z" fill="#7C7C7C"/>
<path d="M449.629 279.328H334.655C333.854 279.327 333.086 279.009 332.519 278.443C331.952 277.877 331.634 277.109 331.633 276.309V229.695C331.634 228.895 331.952 228.127 332.519 227.561C333.086 226.995 333.854 226.677 334.655 226.676H449.629C450.43 226.677 451.198 226.995 451.765 227.561C452.331 228.127 452.65 228.895 452.651 229.695V276.309C452.65 277.109 452.331 277.877 451.765 278.443C451.198 279.009 450.43 279.327 449.629 279.328Z" fill="#009647"/>
<path d="M438.681 301.689H345.603C345.126 301.69 344.654 301.597 344.213 301.415C343.773 301.233 343.372 300.966 343.035 300.63C342.698 300.293 342.43 299.894 342.248 299.454C342.065 299.014 341.971 298.542 341.971 298.066C341.971 297.59 342.065 297.118 342.248 296.678C342.43 296.238 342.698 295.838 343.035 295.502C343.372 295.165 343.773 294.898 344.213 294.717C344.654 294.535 345.126 294.442 345.603 294.442H438.681C443.358 294.377 443.405 301.755 438.681 301.689Z" fill="#E4E4E4"/>
<path d="M438.681 318.297H345.602C344.641 318.297 343.718 317.915 343.038 317.235C342.358 316.556 341.976 315.634 341.976 314.673C341.976 313.712 342.358 312.791 343.038 312.111C343.718 311.432 344.641 311.05 345.602 311.05H438.681C443.358 310.985 443.405 318.363 438.681 318.297Z" fill="#E4E4E4"/>
<path d="M438.681 334.904H345.603C345.126 334.905 344.654 334.812 344.213 334.63C343.773 334.448 343.372 334.181 343.035 333.845C342.698 333.508 342.43 333.108 342.248 332.668C342.065 332.229 341.971 331.757 341.971 331.281C341.971 330.804 342.065 330.333 342.248 329.893C342.43 329.453 342.698 329.053 343.035 328.717C343.372 328.38 343.773 328.113 344.213 327.931C344.654 327.75 345.126 327.656 345.603 327.657H438.681C443.358 327.592 443.405 334.97 438.681 334.904Z" fill="#E4E4E4"/>
<path d="M151.878 361.736L161.505 358.684C162.705 353.522 162.625 348.144 161.273 343.02C157.405 351.612 146.058 353.718 139.592 360.576C137.592 362.731 136.103 365.307 135.235 368.115C134.367 370.923 134.143 373.89 134.578 376.796L132.553 383.661C137.283 383.258 141.87 381.834 145.997 379.488C150.124 377.143 153.693 373.931 156.458 370.074C157.987 367.896 159.236 365.533 160.175 363.042C156.07 362.632 151.878 361.736 151.878 361.736Z" fill="#8ACFAA"/>
<path d="M141.59 354.939L148.845 347.917C147.614 342.762 145.143 337.985 141.645 334C142.019 343.414 132.802 350.355 130.077 359.375C129.248 362.195 129.065 365.165 129.542 368.064C130.018 370.964 131.141 373.72 132.828 376.127L134.08 383.174C138.134 380.705 141.603 377.387 144.25 373.448C146.897 369.51 148.658 365.045 149.411 360.361C149.808 357.729 149.871 355.058 149.6 352.41C145.742 353.872 141.59 354.939 141.59 354.939Z" fill="#8ACFAA"/>
<path d="M160.986 218.318C160.193 218.424 159.387 218.355 158.624 218.116C157.861 217.877 157.16 217.474 156.569 216.935C155.979 216.396 155.514 215.734 155.208 214.997C154.901 214.259 154.76 213.463 154.795 212.664L119.827 177.213L129.588 170.423L160.891 207.405C162.229 207.552 163.467 208.185 164.37 209.183C165.273 210.181 165.778 211.475 165.789 212.82C165.801 214.165 165.318 215.467 164.433 216.481C163.548 217.494 162.321 218.148 160.986 218.318Z" fill="#FFB6B6"/>
<path d="M109.069 161.879C109.069 161.879 106.591 163.363 110.715 167.883C114.018 171.501 128.428 188.898 134.18 192.53C133.553 194.34 149.464 211.666 151.137 212.771L159.98 201.744C159.475 198.582 142.074 183.488 140.875 183.872L135.327 176.981L122.755 155.911L110.841 160.774L109.069 161.879Z" fill="#009647"/>
<path d="M81.4539 373.113H88.0459L91.1831 347.706H81.4531L81.4539 373.113Z" fill="#FFB6B6"/>
<path d="M79.3022 368.601L89.8343 367.973V372.481L99.8475 379.391C100.342 379.732 100.715 380.223 100.911 380.79C101.107 381.358 101.116 381.974 100.937 382.547C100.758 383.12 100.4 383.621 99.9163 383.977C99.4322 384.333 98.8468 384.525 98.2458 384.525H85.7069L83.5456 380.065L82.7018 384.525H77.9741L79.3022 368.601Z" fill="#2F2E41"/>
<path d="M118.484 373.113H125.076L128.213 347.706H118.484V373.113Z" fill="#FFB6B6"/>
<path d="M116.332 368.601L126.865 367.973V372.481L136.878 379.391C137.372 379.732 137.745 380.223 137.941 380.79C138.137 381.358 138.146 381.974 137.967 382.547C137.788 383.12 137.431 383.621 136.947 383.977C136.462 384.333 135.877 384.525 135.276 384.525H122.737L120.576 380.065L119.732 384.525H115.004L116.332 368.601Z" fill="#2F2E41"/>
<path d="M78.6092 351.203H78.6809L79.9487 309.892C79.1283 308.31 78.7119 306.551 78.7366 304.77C78.7614 302.989 79.2265 301.242 80.0906 299.684L80.2721 299.355L79.8015 297.176C79.197 294.375 79.4744 291.456 80.5956 288.819L81.7784 250.284C77.5528 222.921 97.6906 205.076 97.6906 205.076L94.0106 189.608L130.444 186.027L127.857 205.076L134.334 227.309C138.615 268.988 137.838 309.603 131.044 348.953L131.229 349.046C131.896 349.276 132.182 350.199 131.869 351.108C131.555 352.017 130.759 352.567 130.093 352.337L114.161 351.784C113.494 351.554 113.208 350.63 113.522 349.722C113.836 348.813 114.631 348.263 115.298 348.493L116.381 349.04L114.071 309.177L114.327 301.895L113.799 293.635L111.357 256.479L102.114 302.17L92.6723 351.662C92.9327 351.898 93.1155 352.207 93.1965 352.549C93.2775 352.89 93.253 353.248 93.1261 353.576C92.9993 353.903 92.776 354.184 92.4859 354.382C92.1958 354.58 91.8524 354.685 91.5011 354.684H78.6093C78.1478 354.683 77.7056 354.499 77.3796 354.173C77.0537 353.847 76.8706 353.405 76.8706 352.943C76.8706 352.482 77.0537 352.04 77.3796 351.714C77.7056 351.387 78.1478 351.204 78.6092 351.203Z" fill="#2F2E41"/>
<path d="M123.348 150.694L116.183 146.399L101.853 144.967L89.1875 151.411L89.3144 171.098L97.3494 191.516L128.652 197.962L132.304 180.018C132.304 180.018 141.618 167.518 131.588 160.359L123.348 150.694Z" fill="#009647"/>
<path d="M92.6774 235.694C91.9966 235.275 91.416 234.712 90.9765 234.044C90.537 233.377 90.2493 232.621 90.1337 231.831C90.018 231.04 90.0773 230.234 90.3072 229.469C90.5372 228.703 90.9323 227.998 91.4646 227.402L86.8442 177.841L98.7032 178.756L99.516 227.185C100.459 228.145 101.017 229.417 101.084 230.761C101.151 232.104 100.722 233.426 99.879 234.474C99.0361 235.523 97.8374 236.227 96.5101 236.451C95.1828 236.676 93.8191 236.406 92.6774 235.694Z" fill="#FFB6B6"/>
<path d="M89.627 151.609C89.627 151.609 86.768 151.191 87.0992 157.299C87.3643 162.189 86.1043 192.328 88.2574 198.777C86.6254 199.782 86.5385 224.312 87.134 226.225L100.966 223.279C102.577 220.512 101.516 195.151 100.345 194.69L100.414 185.846L103.471 156.693L91.6989 151.875L89.627 151.609Z" fill="#009647"/>
<path d="M160.318 240.279C159.948 239.828 159.683 239.299 159.542 238.732C159.402 238.166 159.389 237.575 159.506 237.003C160.874 230.2 160.874 223.193 159.506 216.391C159.389 215.819 159.402 215.228 159.542 214.661C159.683 214.094 159.948 213.566 160.318 213.114C160.673 212.68 161.119 212.329 161.625 212.085C162.13 211.841 162.683 211.711 163.244 211.704C169.27 209.305 175.04 209.304 180.399 211.704C181.324 211.72 182.213 212.066 182.907 212.678C183.6 213.29 184.053 214.13 184.183 215.045C185.234 222.777 185.234 230.616 184.183 238.348C184.051 239.275 183.59 240.123 182.882 240.737C182.175 241.351 181.27 241.689 180.334 241.69H163.303C162.732 241.691 162.167 241.565 161.651 241.321C161.135 241.077 160.679 240.721 160.318 240.279Z" fill="#009647"/>
<path d="M165.086 220.588H179.421C179.658 220.588 179.885 220.493 180.052 220.325C180.22 220.157 180.314 219.93 180.314 219.693C180.314 219.456 180.22 219.229 180.052 219.061C179.885 218.893 179.658 218.799 179.421 218.798H165.086C164.849 218.798 164.621 218.892 164.453 219.06C164.285 219.228 164.19 219.456 164.19 219.693C164.19 219.93 164.285 220.158 164.453 220.326C164.621 220.494 164.849 220.588 165.086 220.588Z" fill="white"/>
<path d="M165.087 227.75H179.421C179.658 227.749 179.885 227.655 180.053 227.487C180.22 227.319 180.314 227.092 180.314 226.855C180.314 226.618 180.22 226.39 180.053 226.223C179.885 226.055 179.658 225.96 179.421 225.959H165.087C164.85 225.96 164.622 226.055 164.455 226.223C164.287 226.39 164.193 226.618 164.193 226.855C164.193 227.092 164.287 227.319 164.455 227.487C164.622 227.655 164.85 227.749 165.087 227.75Z" fill="white"/>
<path d="M165.086 234.911H179.421C179.658 234.911 179.886 234.817 180.054 234.649C180.222 234.481 180.317 234.253 180.317 234.016C180.317 233.778 180.222 233.551 180.054 233.383C179.886 233.215 179.658 233.121 179.421 233.121H165.086C164.849 233.121 164.621 233.215 164.453 233.383C164.285 233.551 164.19 233.778 164.19 234.016C164.19 234.253 164.285 234.481 164.453 234.649C164.621 234.817 164.849 234.911 165.086 234.911Z" fill="white"/>
<path d="M206 385C206 385.263 205.978 385.523 205.935 385.766C205.891 386.009 205.827 386.23 205.747 386.416C205.666 386.602 205.57 386.749 205.465 386.849C205.36 386.95 205.247 387.001 205.133 387H0.867232C0.637228 387 0.416642 386.789 0.254005 386.414C0.0913674 386.039 0 385.53 0 385C0 384.47 0.0913674 383.961 0.254005 383.586C0.416642 383.211 0.637228 383 0.867232 383H205.133C205.247 382.999 205.36 383.05 205.465 383.151C205.57 383.251 205.666 383.398 205.747 383.584C205.827 383.77 205.891 383.991 205.935 384.234C205.978 384.477 206 384.737 206 385Z" fill="#7C7C7C"/>
<path d="M122.448 137.649V124.31C122.451 121.962 121.991 119.636 121.094 117.466C120.197 115.296 118.881 113.323 117.221 111.661C115.561 109.999 113.589 108.68 111.419 107.78C109.248 106.88 106.922 106.416 104.572 106.414C102.222 106.413 99.8943 106.874 97.7227 107.771C95.5511 108.669 93.5778 109.985 91.9155 111.645C90.2533 113.305 88.9346 115.276 88.0349 117.445C87.1352 119.614 86.6722 121.939 86.6721 124.287V124.31C83.5194 130.875 85.4918 133.996 86.6721 137.649C86.6732 138.285 86.9266 138.895 87.3768 139.345C87.827 139.794 88.4373 140.048 89.0739 140.049H120.045C120.682 140.048 121.293 139.795 121.743 139.345C122.193 138.895 122.447 138.285 122.448 137.649Z" fill="#2F2E41"/>
<path d="M110.425 139.182C117.82 139.182 123.815 133.192 123.815 125.803C123.815 118.414 117.82 112.424 110.425 112.424C103.03 112.424 97.0356 118.414 97.0356 125.803C97.0356 133.192 103.03 139.182 110.425 139.182Z" fill="#FFB7B7"/>
<path d="M96.4122 129.31C96.5336 129.291 96.6549 129.266 96.7763 129.247C98.8649 128.876 100.953 128.513 103.036 128.136L103.227 123.42L105.75 127.645C111.505 129.553 116.889 128.474 121.954 126.094C123.625 125.301 125.246 124.408 126.809 123.42C126.383 120.811 125.38 118.331 123.871 116.16C122.363 113.989 120.387 112.183 118.09 110.873C117.899 110.764 117.713 110.669 117.522 110.573L117.519 110.572L117.517 110.571L117.516 110.569L117.515 110.566C117.19 110.413 116.858 110.267 116.525 110.133C113.925 109.117 111.09 108.86 108.349 109.391C105.609 109.922 103.075 111.219 101.043 113.132C96.9551 117.031 95.1156 123.471 96.4122 129.31Z" fill="#2F2E41"/>
<defs>
<filter id="filter0_dd_94_170" x="27.8989" y="9.08203" width="492.812" height="389.699" filterUnits="userSpaceOnUse" color-interpolation-filters="sRGB">
<feFlood flood-opacity="0" result="BackgroundImageFix"/>
<feColorMatrix in="SourceAlpha" type="matrix" values="0 0 0 0 0 0 0 0 0 0 0 0 0 0 0 0 0 0 127 0" result="hardAlpha"/>
<feMorphology radius="4" operator="erode" in="SourceAlpha" result="effect1_dropShadow_94_170"/>
<feOffset dy="4"/>
<feGaussianBlur stdDeviation="3"/>
<feComposite in2="hardAlpha" operator="out"/>
<feColorMatrix type="matrix" values="0 0 0 0 0 0 0 0 0 0 0 0 0 0 0 0 0 0 0.1 0"/>
<feBlend mode="normal" in2="BackgroundImageFix" result="effect1_dropShadow_94_170"/>
<feColorMatrix in="SourceAlpha" type="matrix" values="0 0 0 0 0 0 0 0 0 0 0 0 0 0 0 0 0 0 127 0" result="hardAlpha"/>
<feMorphology radius="3" operator="erode" in="SourceAlpha" result="effect2_dropShadow_94_170"/>
<feOffset dy="10"/>
<feGaussianBlur stdDeviation="7.5"/>
<feComposite in2="hardAlpha" operator="out"/>
<feColorMatrix type="matrix" values="0 0 0 0 0 0 0 0 0 0 0 0 0 0 0 0 0 0 0.1 0"/>
<feBlend mode="normal" in2="effect1_dropShadow_94_170" result="effect2_dropShadow_94_170"/>
<feBlend mode="normal" in="SourceGraphic" in2="effect2_dropShadow_94_170" result="shape"/>
</filter>
</defs>
</svg>
