<svg width="36" height="16" viewBox="0 0 36 16" fill="none" xmlns="http://www.w3.org/2000/svg">
<path d="M17.2061 4.83638L8.07137 9.47576C5.98046 10.5377 6.45518 13.6506 8.75964 13.9889L18.878 15.4748C19.3748 15.5477 19.8837 15.4616 20.3324 15.2286L29.6574 10.3862C31.7528 9.29807 31.2253 6.16559 28.8979 5.87596L18.5893 4.59313C18.116 4.53423 17.6342 4.61894 17.2061 4.83638Z" fill="#EAEAEA"/>
<path d="M1.18814 8.04986L16.5457 0.6203C16.7396 0.526493 16.9544 0.486359 17.1677 0.50409L34.4159 1.93793C35.6225 2.03824 35.9132 3.67002 34.8206 4.20971L34.6369 4.30044V12.3774C34.6369 12.4117 34.6174 12.443 34.5865 12.4581L34.1669 12.663C34.1072 12.6922 34.0375 12.6487 34.0375 12.5823V4.59655L19.1419 11.9542C18.9384 12.0547 18.7115 12.0957 18.4872 12.0726L1.56028 10.3238C0.363425 10.2002 0.0978436 8.57732 1.18814 8.04986Z" fill="white"/>
</svg>
