<svg width="1280" height="720" viewBox="0 0 1280 720" fill="none" xmlns="http://www.w3.org/2000/svg">
<rect width="1280" height="720" fill="#E6F5ED"/>
<path fill-rule="evenodd" clip-rule="evenodd" d="M1537.45 348.078L1530.96 325.695C1524.47 303.313 1511.49 258.548 1482.37 241.737C1453.25 224.925 1407.99 236.067 1368.79 236.727C1329.58 237.387 1296.43 227.563 1269.33 207.258C1242.23 186.952 1221.18 156.164 1200.13 125.376C1179.08 94.5882 1158.03 63.8002 1122.86 57.4713C1087.69 51.1425 1038.4 69.2729 995.163 76.9208C951.923 84.5686 914.736 81.734 891.67 54.4401C868.604 27.1462 859.659 -24.6069 855.187 -50.4834L850.715 -76.36L911.236 -181.185L925.795 -172.78C940.354 -164.374 969.472 -147.563 998.59 -130.751C1027.71 -113.94 1056.83 -97.1285 1085.94 -80.3171C1115.06 -63.5058 1144.18 -46.6944 1173.3 -29.883C1202.42 -13.0717 1231.54 3.73969 1260.65 20.5511C1289.77 37.3624 1318.89 54.1738 1348.01 70.9851C1377.13 87.7965 1406.24 104.608 1435.36 121.419C1464.48 138.231 1493.6 155.042 1522.72 171.853C1551.83 188.665 1580.95 205.476 1595.51 213.882L1610.07 222.287L1537.45 348.078Z" fill="#009647"/>
<path fill-rule="evenodd" clip-rule="evenodd" d="M1321.28 213.143L1316.14 189.125C1311 165.106 1300.72 117.069 1272.21 100.609C1243.7 84.1484 1196.96 99.2647 1157.06 102.54C1117.15 105.815 1084.08 97.2486 1057.85 76.8412C1031.62 56.4338 1012.23 24.1851 992.832 -8.06353C973.437 -40.3122 954.042 -72.5608 918.695 -77.18C883.349 -81.7991 832.05 -58.7886 787.588 -47.6194C743.126 -36.4502 705.5 -37.1222 683.827 -65.4238C662.153 -93.7253 656.432 -149.656 653.571 -177.622L650.71 -205.588L719.075 -324L733.33 -315.77C747.585 -307.54 776.096 -291.079 804.606 -274.619C833.116 -258.159 861.626 -241.698 890.136 -225.238C918.646 -208.778 947.156 -192.317 975.667 -175.857C1004.18 -159.397 1032.69 -142.936 1061.2 -126.476C1089.71 -110.016 1118.22 -93.5552 1146.73 -77.0949C1175.24 -60.6346 1203.75 -44.1742 1232.26 -27.7139C1260.77 -11.2535 1289.28 5.20681 1317.79 21.6671C1346.3 38.1275 1374.81 54.5878 1389.06 62.818L1403.32 71.0482L1321.28 213.143Z" fill="#F8BF02"/>
<path fill-rule="evenodd" clip-rule="evenodd" d="M1311.31 300.881L1305.89 282.171C1300.46 263.462 1289.61 226.043 1265.27 211.99C1240.93 197.937 1203.1 207.251 1170.33 207.802C1137.56 208.354 1109.85 200.142 1087.19 183.169C1064.54 166.195 1046.95 140.459 1029.35 114.723C1011.76 88.9875 994.162 63.2516 964.763 57.9612C935.364 52.6709 894.16 67.8262 858.016 74.2192C821.872 80.6121 790.786 78.2425 771.505 55.4274C752.224 32.6123 744.748 -10.6485 741.009 -32.2789L737.271 -53.9093L787.861 -141.533L800.031 -134.507C812.201 -127.481 836.541 -113.428 860.881 -99.3752C885.221 -85.3225 909.561 -71.2698 933.901 -57.217C958.241 -43.1643 982.581 -29.1116 1006.92 -15.0589C1031.26 -1.00613 1055.6 13.0466 1079.94 27.0993C1104.28 41.1521 1128.62 55.2048 1152.96 69.2575C1177.3 83.3102 1201.64 97.363 1225.98 111.416C1250.32 125.468 1274.66 139.521 1299 153.574C1323.34 167.627 1347.68 181.679 1359.85 188.706L1372.02 195.732L1311.31 300.881Z" fill="url(#paint0_linear_79_167)"/>
<path fill-rule="evenodd" clip-rule="evenodd" d="M-246.748 415.867L-240.47 437.518C-234.193 459.169 -221.637 502.471 -193.471 518.733C-165.304 534.995 -121.525 524.217 -83.6013 523.579C-45.6772 522.941 -13.6075 532.444 12.6079 552.086C38.8232 571.728 59.1842 601.51 79.5452 631.292C99.9062 661.074 120.267 690.857 154.288 696.979C188.31 703.101 235.991 685.563 277.818 678.165C319.645 670.767 355.617 673.509 377.93 699.911C400.242 726.313 408.895 776.375 413.221 801.406L417.547 826.438L359.003 927.838L344.92 919.707C330.836 911.576 302.67 895.314 274.503 879.052C246.336 862.79 218.169 846.527 190.002 830.265C161.836 814.003 133.669 797.741 105.502 781.479C77.3352 765.217 49.1684 748.955 21.0016 732.693C-7.16523 716.431 -35.332 700.168 -63.4988 683.906C-91.6657 667.644 -119.832 651.382 -147.999 635.12C-176.166 618.858 -204.333 602.596 -232.5 586.334C-260.667 570.071 -288.833 553.809 -302.917 545.678L-317 537.547L-246.748 415.867Z" fill="#009647"/>
<path fill-rule="evenodd" clip-rule="evenodd" d="M-37.6445 546.393L-32.6727 569.627C-27.701 592.86 -17.7575 639.328 9.82122 655.251C37.3999 671.173 82.6138 656.551 121.214 653.383C159.815 650.215 191.803 658.501 217.177 678.242C242.551 697.982 261.312 729.177 280.073 760.372C298.834 791.567 317.596 822.762 351.787 827.231C385.979 831.699 435.602 809.44 478.611 798.636C521.621 787.832 558.017 788.482 578.983 815.859C599.948 843.236 605.483 897.339 608.25 924.391L611.018 951.443L544.886 1065.99L531.096 1058.03C517.307 1050.06 489.728 1034.14 462.15 1018.22C434.571 1002.3 406.992 986.374 379.414 970.452C351.835 954.529 324.256 938.606 296.678 922.684C269.099 906.761 241.52 890.839 213.941 874.916C186.363 858.994 158.784 843.071 131.205 827.148C103.627 811.226 76.0481 795.303 48.4694 779.381C20.8907 763.458 -6.68801 747.536 -34.2667 731.613C-61.8454 715.69 -89.4241 699.768 -103.213 691.807L-117.003 683.845L-37.6445 546.393Z" fill="#F8BF02"/>
<path fill-rule="evenodd" clip-rule="evenodd" d="M-28.0033 461.521L-22.7558 479.62C-17.5084 497.718 -7.0134 533.915 16.5314 547.508C40.0763 561.102 76.6709 552.092 108.372 551.559C140.073 551.026 166.88 558.969 188.794 575.388C210.707 591.807 227.727 616.702 244.747 641.597C261.767 666.492 278.787 691.387 307.225 696.505C335.664 701.622 375.521 686.962 410.485 680.778C445.448 674.594 475.518 676.886 494.169 698.956C512.82 721.025 520.053 762.873 523.669 783.797L527.285 804.72L478.348 889.482L466.576 882.685C454.803 875.888 431.258 862.294 407.714 848.701C384.169 835.107 360.624 821.514 337.079 807.92C313.534 794.326 289.989 780.733 266.445 767.139C242.9 753.546 219.355 739.952 195.81 726.358C172.265 712.765 148.721 699.171 125.176 685.577C101.631 671.984 78.0861 658.39 54.5412 644.797C30.9964 631.203 7.45158 617.609 -16.0932 604.016C-39.6381 590.422 -63.1829 576.829 -74.9553 570.032L-86.7277 563.235L-28.0033 461.521Z" fill="url(#paint1_linear_79_167)"/>
<defs>
<linearGradient id="paint0_linear_79_167" x1="928.067" y1="245.661" x2="1075.13" y2="-20.7123" gradientUnits="userSpaceOnUse">
<stop stop-color="#009647" stop-opacity="0.92"/>
<stop offset="1" stop-color="#D9D9D9" stop-opacity="0"/>
</linearGradient>
<linearGradient id="paint1_linear_79_167" x1="342.723" y1="514.938" x2="200.467" y2="772.608" gradientUnits="userSpaceOnUse">
<stop stop-color="#009647" stop-opacity="0.92"/>
<stop offset="1" stop-color="#D9D9D9" stop-opacity="0"/>
</linearGradient>
</defs>
</svg>
