<svg width="684" height="411" viewBox="0 0 684 411" fill="none" xmlns="http://www.w3.org/2000/svg">
<path fill-rule="evenodd" clip-rule="evenodd" d="M941.446 348.078L934.956 325.695C928.467 303.313 915.487 258.548 886.369 241.737C857.251 224.925 811.994 236.067 772.789 236.727C733.584 237.387 700.431 227.563 673.331 207.258C646.23 186.952 625.181 156.164 604.133 125.376C583.084 94.5882 562.035 63.8002 526.865 57.4713C491.695 51.1425 442.403 69.2729 399.163 76.9208C355.924 84.5686 318.736 81.734 295.67 54.4401C272.604 27.1462 263.66 -24.6069 259.187 -50.4834L254.715 -76.36L315.236 -181.185L329.795 -172.78C344.354 -164.374 373.472 -147.563 402.59 -130.751C431.708 -113.94 460.827 -97.1285 489.945 -80.3171C519.063 -63.5058 548.181 -46.6944 577.299 -29.883C606.417 -13.0717 635.535 3.73969 664.653 20.5511C693.772 37.3624 722.89 54.1738 752.008 70.9851C781.126 87.7965 810.244 104.608 839.362 121.419C868.48 138.231 897.598 155.042 926.717 171.853C955.835 188.665 984.953 205.476 999.512 213.882L1014.07 222.287L941.446 348.078Z" fill="#009647"/>
<path fill-rule="evenodd" clip-rule="evenodd" d="M725.28 213.143L720.141 189.125C715.001 165.106 704.722 117.069 676.212 100.609C647.701 84.1484 600.96 99.2647 561.056 102.54C521.152 105.815 488.084 97.2486 461.853 76.8412C435.621 56.4338 416.227 24.1851 396.832 -8.06353C377.437 -40.3122 358.042 -72.5608 322.696 -77.18C287.349 -81.7991 236.05 -58.7886 191.588 -47.6194C147.126 -36.4502 109.501 -37.1222 87.827 -65.4238C66.1534 -93.7253 60.4318 -149.656 57.5709 -177.622L54.7101 -205.588L123.075 -324L137.331 -315.77C151.586 -307.54 180.096 -291.079 208.606 -274.619C237.116 -258.159 265.626 -241.698 294.136 -225.238C322.647 -208.778 351.157 -192.317 379.667 -175.857C408.177 -159.397 436.687 -142.936 465.197 -126.476C493.707 -110.016 522.217 -93.5552 550.728 -77.0949C579.238 -60.6346 607.748 -44.1742 636.258 -27.7139C664.768 -11.2535 693.278 5.20681 721.788 21.6671C750.299 38.1275 778.809 54.5878 793.064 62.818L807.319 71.0482L725.28 213.143Z" fill="#F8BF02"/>
<path fill-rule="evenodd" clip-rule="evenodd" d="M715.314 300.881L709.889 282.171C704.465 263.462 693.615 226.043 669.275 211.99C644.935 197.937 607.104 207.251 574.333 207.802C541.561 208.354 513.848 200.142 491.195 183.169C468.541 166.195 450.946 140.459 433.352 114.723C415.757 88.9875 398.162 63.2516 368.763 57.9612C339.364 52.6709 298.161 67.8262 262.016 74.2192C225.872 80.6121 194.787 78.2425 175.506 55.4274C156.225 32.6123 148.748 -10.6485 145.009 -32.2789L141.271 -53.9093L191.861 -141.533L204.031 -134.507C216.201 -127.481 240.541 -113.428 264.881 -99.3752C289.221 -85.3225 313.561 -71.2698 337.901 -57.217C362.241 -43.1643 386.581 -29.1116 410.921 -15.0589C435.261 -1.00613 459.601 13.0466 483.941 27.0993C508.281 41.1521 532.621 55.2048 556.961 69.2575C581.302 83.3102 605.642 97.363 629.982 111.416C654.322 125.468 678.662 139.521 703.002 153.574C727.342 167.627 751.682 181.679 763.852 188.706L776.022 195.732L715.314 300.881Z" fill="url(#paint0_linear_109_88)"/>
<defs>
<linearGradient id="paint0_linear_109_88" x1="332.067" y1="245.661" x2="479.127" y2="-20.7123" gradientUnits="userSpaceOnUse">
<stop stop-color="#009647" stop-opacity="0.92"/>
<stop offset="1" stop-color="#D9D9D9" stop-opacity="0"/>
</linearGradient>
</defs>
</svg>
