<svg width="64" height="64" viewBox="0 0 64 64" fill="none" xmlns="http://www.w3.org/2000/svg">
<path d="M32 0.5C14.6047 0.5 0.5 14.6047 0.5 32C0.5 49.3953 14.6047 63.5 32 63.5C49.3953 63.5 63.5 49.3953 63.5 32C63.5 14.6047 49.3953 0.5 32 0.5ZM29.75 16.8125C29.75 16.5031 30.0031 16.25 30.3125 16.25H33.6875C33.9969 16.25 34.25 16.5031 34.25 16.8125V35.9375C34.25 36.2469 33.9969 36.5 33.6875 36.5H30.3125C30.0031 36.5 29.75 36.2469 29.75 35.9375V16.8125ZM32 47.75C31.1168 47.732 30.2759 47.3685 29.6577 46.7375C29.0395 46.1065 28.6932 45.2584 28.6932 44.375C28.6932 43.4916 29.0395 42.6435 29.6577 42.0125C30.2759 41.3815 31.1168 41.018 32 41C32.8832 41.018 33.7241 41.3815 34.3423 42.0125C34.9605 42.6435 35.3068 43.4916 35.3068 44.375C35.3068 45.2584 34.9605 46.1065 34.3423 46.7375C33.7241 47.3685 32.8832 47.732 32 47.75Z" fill="#F8BF02"/>
</svg>
